<svg width="22" height="22" viewBox="0 0 22 22" fill="none" xmlns="http://www.w3.org/2000/svg">
<path d="M16.0052 17.675C15.6975 17.3975 15.2171 17.4275 14.9469 17.7425C14.5191 18.23 13.9037 18.5075 13.2582 18.5075H5.75274C4.51433 18.5075 3.50109 17.495 3.50109 16.2575V5.75C3.50109 4.5125 4.51433 3.5 5.75274 3.5H9.1377C9.25779 3.5 9.38539 3.5 9.50547 3.515V7.25C9.50547 8.4875 10.5187 9.5 11.7571 9.5H16.1178C16.3505 9.5 16.5681 9.395 16.7107 9.2075C16.8533 9.02 16.8984 8.7875 16.8458 8.5625C16.6132 7.6475 16.1403 6.815 15.4723 6.1475L12.8604 3.5375C11.8697 2.5475 10.5487 2 9.14521 2H5.75274C3.68123 2 2 3.68 2 5.75V16.25C2 18.32 3.68123 20 5.75274 20H13.2582C14.3315 20 15.3597 19.535 16.0728 18.7325C16.3505 18.425 16.3204 17.945 16.0052 17.675ZM11.0066 3.995C11.2918 4.16 11.5545 4.3625 11.7946 4.6025L14.4065 7.2125C14.6392 7.445 14.8419 7.715 15.007 8H11.7496C11.3368 8 10.9991 7.6625 10.9991 7.25V3.995H11.0066ZM19.3602 15.5675L18.1518 16.775C18.0017 16.925 17.814 16.9925 17.6189 16.9925C17.4237 16.9925 17.2361 16.9175 17.086 16.775C16.7933 16.4825 16.7933 16.01 17.086 15.7175L18.0542 14.75H12.5002C12.0874 14.75 11.7496 14.4125 11.7496 14C11.7496 13.5875 12.0874 13.25 12.5002 13.25H18.0542L17.086 12.2825C16.7933 11.99 16.7933 11.5175 17.086 11.225C17.3787 10.9325 17.8516 10.9325 18.1443 11.225L19.3527 12.4325C20.2158 13.295 20.2158 14.705 19.3527 15.575L19.3602 15.5675Z" fill="#212121"/>
</svg>
