<svg width="22" height="22" viewBox="0 0 22 22" fill="none" xmlns="http://www.w3.org/2000/svg">
<path d="M7.91999 14.96C7.43397 14.96 7.03999 14.605 7.03999 14.1671V9.59299C7.03999 9.15505 7.43397 8.80005 7.91999 8.80005C8.40602 8.80005 8.79999 9.15505 8.79999 9.59299V14.1671C8.79999 14.605 8.40602 14.96 7.91999 14.96Z" fill="#212121"/>
<path d="M19.5181 11.2421C19.1194 11.2421 18.7962 11.5851 18.7962 12.0083V15.644C18.7962 15.936 18.6434 16.1987 18.3972 16.3293C18.3942 16.3308 18.3913 16.3324 18.3884 16.3341L14.2067 18.6299C14.0053 18.7352 13.7655 18.7346 13.5647 18.628L9.081 16.2484C8.47451 15.9266 7.75047 15.9266 7.14399 16.2484C7.13977 16.2507 7.13551 16.253 7.13129 16.2553L4.24306 17.8646C3.92049 18.0326 3.64842 17.8953 3.54606 17.8282C3.44319 17.7606 3.20374 17.562 3.20374 17.1764V9.87602C3.20374 9.58393 3.35664 9.32131 3.6028 9.19071C3.60576 9.18914 3.60868 9.18753 3.6116 9.18592L7.79328 6.89011C7.99472 6.78476 8.23446 6.78541 8.43532 6.89203L11.1454 8.33029C11.5019 8.51951 11.9356 8.36611 12.1139 7.98764C12.2922 7.60913 12.1477 7.1489 11.7911 6.95965L9.081 5.52139C8.47451 5.19958 7.75047 5.19958 7.14399 5.52139C7.14103 5.52296 7.13811 5.52457 7.13518 5.52618L2.95228 7.8226C2.21669 8.21536 1.75999 9.00165 1.75999 9.87602V17.1764C1.75999 17.9789 2.14396 18.7099 2.78708 19.1318C3.43012 19.5537 4.21783 19.5913 4.89412 19.2324C4.89835 19.2302 4.90261 19.2279 4.90683 19.2255L7.79491 17.6164C7.99598 17.5118 8.23496 17.5127 8.43535 17.6191L12.919 19.9986C13.2222 20.1595 13.5549 20.24 13.8875 20.24C14.2202 20.24 14.5528 20.1595 14.856 19.9986C14.859 19.9971 14.8619 19.9955 14.8648 19.9938L19.0477 17.6974C19.7833 17.3046 20.24 16.5183 20.24 15.644V12.0083C20.24 11.5851 19.9168 11.2421 19.5181 11.2421Z" fill="#212121"/>
<path d="M14.96 16.0169V12.1432C14.96 11.7549 14.566 11.4401 14.08 11.4401C13.594 11.4401 13.2 11.7549 13.2 12.1432V16.0169C13.2 16.4053 13.594 16.7201 14.08 16.7201C14.566 16.7201 14.96 16.4053 14.96 16.0169Z" fill="#212121"/>
<path d="M16.72 6.16002C17.206 6.16002 17.6 5.76603 17.6 5.28002C17.6 4.79401 17.206 4.40002 16.72 4.40002C16.234 4.40002 15.84 4.79401 15.84 5.28002C15.84 5.76603 16.234 6.16002 16.72 6.16002Z" fill="#212121"/>
<path d="M16.72 1.76001C14.779 1.76001 13.2 3.49089 13.2 5.61841C13.2 6.80657 13.7848 8.40549 14.9382 10.3708C15.3311 11.0403 15.9972 11.44 16.72 11.44C17.4428 11.44 18.1089 11.0403 18.5018 10.3708C19.6552 8.40545 20.24 6.80653 20.24 5.61837C20.24 3.49089 18.661 1.76001 16.72 1.76001ZM17.3177 9.53585C17.1831 9.76515 16.9652 9.89669 16.72 9.89669C16.4748 9.89669 16.2569 9.76516 16.1223 9.53581C15.1458 7.87188 14.608 6.48065 14.608 5.61841C14.608 4.3419 15.5554 3.30337 16.72 3.30337C17.8846 3.30337 18.832 4.3419 18.832 5.61841C18.832 6.48065 18.2942 7.87188 17.3177 9.53585Z" fill="#212121"/>
</svg>
